<?xml version="1.0" encoding="iso-8859-1"?>
<!-- Generator: Adobe Illustrator 19.0.0, SVG Export Plug-In . SVG Version: 6.00 Build 0)  -->
<svg version="1.1" id="Layer_1" xmlns="http://www.w3.org/2000/svg" xmlns:xlink="http://www.w3.org/1999/xlink" x="0px"
	y="0px" viewBox="0 0 512 512" style="enable-background:new 0 0 512 512;" xml:space="preserve">
	<g>
		<g>
			<g>
				<path d="M256,0C114.617,0,0,114.617,0,256s114.617,256,256,256s256-114.617,256-256S397.383,0,256,0z M256,494.933
				C124.043,494.933,17.067,387.957,17.067,256S124.043,17.067,256,17.067S494.933,124.043,494.933,256S387.957,494.933,256,494.933
				z" fill="#c7c7c7" />
				<path d="M384,324.267H128c-6.845,0-10.904,7.654-7.064,13.32c22.047,32.539,55.575,56.223,93.349,66.432
				c0.056,0.015,0.112,0.031,0.168,0.046c1.516,0.408,3.038,0.793,4.567,1.157c0.237,0.057,0.474,0.115,0.711,0.171
				c1.354,0.316,2.713,0.611,4.077,0.893c0.382,0.079,0.763,0.162,1.146,0.238c1.231,0.245,2.467,0.469,3.704,0.685
				c0.494,0.086,0.987,0.179,1.482,0.261c1.143,0.188,2.29,0.355,3.439,0.519c0.576,0.082,1.151,0.173,1.729,0.249
				c1.088,0.143,2.179,0.263,3.271,0.384c0.63,0.07,1.258,0.149,1.889,0.211c1.08,0.106,2.163,0.188,3.247,0.272
				c0.637,0.05,1.272,0.111,1.91,0.153c1.167,0.077,2.337,0.126,3.507,0.176c0.553,0.024,1.104,0.062,1.657,0.08
				c1.723,0.057,3.449,0.087,5.179,0.087c0,0,0,0,0,0s0,0,0,0c0.006,0,0.013,0,0.019,0c1.725,0,3.447-0.03,5.165-0.086
				c0.561-0.018,1.121-0.056,1.681-0.081c1.164-0.051,2.328-0.099,3.488-0.175c0.646-0.042,1.289-0.104,1.934-0.154
				c1.077-0.084,2.155-0.164,3.228-0.27c0.639-0.063,1.275-0.143,1.913-0.214c1.086-0.12,2.171-0.239,3.252-0.381
				c0.584-0.077,1.165-0.168,1.748-0.251c1.144-0.163,2.287-0.329,3.425-0.516c0.499-0.082,0.995-0.175,1.493-0.262
				c1.236-0.215,2.471-0.439,3.7-0.683c0.384-0.076,0.766-0.16,1.149-0.239c1.364-0.281,2.724-0.576,4.079-0.892
				c0.237-0.055,0.473-0.114,0.71-0.17c1.53-0.364,3.054-0.749,4.571-1.156c0.057-0.015,0.113-0.031,0.17-0.046
				c37.809-10.204,71.344-33.882,93.375-66.44C394.902,331.916,390.842,324.267,384,324.267z M250.621,392.419
				c-0.905-0.034-1.81-0.066-2.714-0.118c-0.491-0.028-0.981-0.071-1.471-0.104c-0.849-0.058-1.698-0.111-2.545-0.184
				c-0.468-0.04-0.933-0.094-1.4-0.139c-0.874-0.084-1.749-0.165-2.621-0.266c-0.39-0.045-0.779-0.101-1.168-0.149
				c-0.952-0.117-1.904-0.235-2.853-0.372c-0.293-0.042-0.585-0.093-0.877-0.136c-1.052-0.158-2.104-0.321-3.152-0.503
				c-0.172-0.03-0.342-0.064-0.513-0.094c-1.18-0.209-2.358-0.428-3.532-0.666c-0.025-0.005-0.049-0.011-0.074-0.016
				c-11.873-2.42-23.434-6.346-34.438-11.671c7.704-7.012,17.807-11.068,28.605-11.068c10.628,0,20.627,3.928,28.434,10.933
				c3.242,2.91,8.156,2.91,11.398,0c7.807-7.005,17.806-10.933,28.434-10.933c10.803,0,20.904,4.055,28.61,11.072
				c-11.016,5.324-22.588,9.25-34.476,11.669c-0.024,0.005-0.047,0.01-0.071,0.015c-1.172,0.238-2.349,0.456-3.527,0.664
				c-0.176,0.031-0.35,0.066-0.526,0.097c-1.041,0.18-2.085,0.341-3.13,0.498c-0.302,0.045-0.604,0.097-0.906,0.141
				c-0.938,0.135-1.88,0.251-2.821,0.367c-0.402,0.049-0.802,0.107-1.205,0.153c-0.862,0.099-1.726,0.179-2.59,0.262
				c-0.479,0.046-0.956,0.101-1.435,0.142c-0.834,0.072-1.67,0.124-2.505,0.181c-0.506,0.034-1.01,0.078-1.517,0.107
				c-0.899,0.052-1.8,0.083-2.701,0.117c-0.443,0.017-0.885,0.044-1.328,0.056c-1.331,0.038-2.663,0.057-3.997,0.058
				c-0.015,0-0.029,0.001-0.043,0.001c-1.346,0-2.691-0.02-4.033-0.058C251.495,392.462,251.059,392.436,250.621,392.419z
				 M334.26,369.426c-11.154-12.285-27.018-19.56-44.125-19.56c-12.409,0-24.23,3.832-34.133,10.77
				c-9.904-6.938-21.724-10.77-34.133-10.77c-17.1,0-32.969,7.275-44.118,19.553c-12.092-7.718-23.071-17.177-32.48-28.086h221.472
				C357.336,352.247,346.357,361.708,334.26,369.426z" fill="#c7c7c7" />
				<path d="M162.133,214.752l38.276,22.966c6.715,4.029,14.857-2.359,12.542-9.84l-10.802-34.905l25.637-24.692
				c5.021-4.836,2.439-13.326-4.425-14.547l-36.904-6.567l-16.783-31.692c-3.205-6.053-11.877-6.053-15.082,0l-16.783,31.692
				l-36.904,6.567c-6.864,1.221-9.446,9.711-4.425,14.547l25.637,24.692l-10.802,34.905c-2.315,7.481,5.827,13.869,12.542,9.84
				L162.133,214.752z M120.378,167.602l24.519-4.363c2.586-0.46,4.817-2.086,6.046-4.408l11.189-21.13l11.189,21.13
				c1.229,2.322,3.46,3.948,6.046,4.408l24.519,4.363l-17.364,16.725c-2.322,2.236-3.185,5.59-2.232,8.669l5.757,18.602
				l-23.525-14.115c-2.702-1.621-6.078-1.621-8.781,0l-23.525,14.115l5.757-18.602c0.953-3.079,0.089-6.433-2.232-8.669
				L120.378,167.602z" fill="#c7c7c7" />
				<path d="M411.095,153.732l-36.904-6.567l-16.783-31.692c-3.205-6.053-11.877-6.053-15.082,0l-16.783,31.692l-36.904,6.567
				c-6.864,1.221-9.446,9.711-4.425,14.547l25.637,24.692l-10.802,34.905c-2.315,7.481,5.827,13.869,12.542,9.84l38.276-22.966
				l38.276,22.966c6.715,4.029,14.857-2.359,12.542-9.84l-10.802-34.905l25.637-24.692
				C420.541,163.443,417.958,154.953,411.095,153.732z M374.257,184.326c-2.322,2.236-3.185,5.59-2.232,8.669l5.757,18.602
				l-23.525-14.115c-2.702-1.621-6.078-1.621-8.781,0l-23.525,14.115l5.757-18.602c0.953-3.079,0.089-6.433-2.232-8.669
				l-17.364-16.725l24.519-4.363c2.586-0.46,4.817-2.086,6.046-4.408l11.189-21.13l11.189,21.13c1.229,2.322,3.46,3.948,6.046,4.408
				l24.519,4.363L374.257,184.326z" fill="#c7c7c7" />
			</g>
		</g>
	</g>
	<g>
	</g>
	<g>
	</g>
	<g>
	</g>
	<g>
	</g>
	<g>
	</g>
	<g>
	</g>
	<g>
	</g>
	<g>
	</g>
	<g>
	</g>
	<g>
	</g>
	<g>
	</g>
	<g>
	</g>
	<g>
	</g>
	<g>
	</g>
	<g>
	</g>
</svg>