<?xml version="1.0" encoding="iso-8859-1"?>
<!-- Generator: Adobe Illustrator 19.0.0, SVG Export Plug-In . SVG Version: 6.00 Build 0)  -->
<svg version="1.1" id="Layer_1" xmlns="http://www.w3.org/2000/svg" xmlns:xlink="http://www.w3.org/1999/xlink" x="0px" y="0px"
	 viewBox="0 0 512.011 512.011" style="enable-background:new 0 0 512.011 512.011;" xml:space="preserve">
<g>
	<g>
		<g>
			<path d="M426.672,213.341c-11.797,0-21.333,9.557-21.333,21.333v21.333c0,82.347-67.008,149.333-149.333,149.333
				s-149.333-66.987-149.333-149.333v-21.333c0-11.776-9.536-21.333-21.333-21.333c-11.797,0-21.333,9.557-21.333,21.333v21.333
				c0,98.645,74.816,180.096,170.667,190.741v22.592h-42.667c-11.797,0-21.333,9.557-21.333,21.333s9.536,21.333,21.333,21.333h128
				c11.797,0,21.333-9.557,21.333-21.333s-9.536-21.333-21.333-21.333h-42.667v-22.592
				c95.851-10.645,170.667-92.096,170.667-190.741v-21.333C448.005,222.899,438.469,213.341,426.672,213.341z"/>
			<path d="M70.256,411.592l-64,64c-8.341,8.341-8.341,21.824,0,30.165c4.16,4.16,9.621,6.251,15.083,6.251
				c5.461,0,10.923-2.091,15.083-6.251l64-64c8.341-8.341,8.341-21.824,0-30.165C92.08,403.251,78.597,403.251,70.256,411.592z"/>
			<path d="M256.005,384.008c70.592,0,128-57.408,128-128v-128c0-70.592-57.408-128-128-128s-128,57.408-128,128v128
				C128.005,326.6,185.413,384.008,256.005,384.008z M219.589,262.259l64-64c8.341-8.341,21.824-8.341,30.165,0
				s8.341,21.824,0,30.165l-64,64c-4.16,4.16-9.621,6.251-15.083,6.251c-5.461,0-10.923-2.091-15.083-6.251
				C211.248,284.083,211.248,270.6,219.589,262.259z"/>
			<path d="M505.755,6.259c-8.341-8.341-21.824-8.341-30.165,0l-64,64c-8.341,8.341-8.341,21.824,0,30.165
				c4.16,4.16,9.621,6.251,15.083,6.251s10.923-2.091,15.083-6.251l64-64C514.096,28.083,514.096,14.6,505.755,6.259z"/>
		</g>
	</g>
</g>
<g>
</g>
<g>
</g>
<g>
</g>
<g>
</g>
<g>
</g>
<g>
</g>
<g>
</g>
<g>
</g>
<g>
</g>
<g>
</g>
<g>
</g>
<g>
</g>
<g>
</g>
<g>
</g>
<g>
</g>
</svg>
